<svg id="Layer_1" data-name="Layer 1" xmlns="http://www.w3.org/2000/svg" viewBox="0 0 49.77 26.63"><path d="M34.4,12.16A41.57,41.57,0,0,1,41,11.69,12.92,12.92,0,0,1,47.44,13a3.88,3.88,0,0,1,2.13,4.78c-.86,2.84-2.9,5.11-5,7.15-5.24,5.4-11.74,9.29-18,13.39a22.63,22.63,0,0,0,2.54-4.91,13.66,13.66,0,0,0,1-4.23A6.37,6.37,0,0,0,29,24.86a7.77,7.77,0,0,0-3.75-2.14A22.94,22.94,0,0,0,19,22.09,73.59,73.59,0,0,0,4.89,23.85,35.24,35.24,0,0,1,0,24.71a29.35,29.35,0,0,0,4-1.94,125.21,125.21,0,0,1,19.41-8A82.58,82.58,0,0,1,34.4,12.16Z" transform="translate(0 -11.69)"/></svg>