<svg id="Layer_1" data-name="Layer 1" xmlns="http://www.w3.org/2000/svg" viewBox="0 0 49.11 18.62"><defs><style>.cls-1{fill:#ffd300;}.cls-2{fill:#e21b4d;}</style></defs><path class="cls-1" d="M15.79,25a9.32,9.32,0,1,1,9.32,9.31A9.31,9.31,0,0,1,15.79,25" transform="translate(-0.44 -15.69)"/><path class="cls-1" d="M17.62,19.47a5.17,5.17,0,0,1,.46.24,26.4,26.4,0,0,1,2.21,1.78c.32.31.68.82.94,1.13a3.92,3.92,0,0,1,1.06,1.83,13,13,0,0,0,.79,3.1,2.67,2.67,0,0,0,.37.43c.28.36.4.94.93,1.25l.44.27c.14.12-.1.55-.85.46.39.19.34.62-.21.65a2.47,2.47,0,0,1-1.9-.75c-.07-.07-.29.22-.68.36s-.91,0-1.32.07a9.18,9.18,0,0,1-1.3.34c-.72,0-.82-.48-.82-.91v-.2a4.22,4.22,0,0,1-.33.73,1,1,0,0,1-.51.57l-.77.1c-.6.26-1.2.46-1.83.67a1.31,1.31,0,0,1-1-.21,1.79,1.79,0,0,1-.46-.61c-.12,0-.29,0-.43,0a.6.6,0,0,1-.27-.2l-.53-.89a.68.68,0,0,1,0-.4.58.58,0,0,1,.53-.29,2.75,2.75,0,0,1,1.21,0c.16-.2.43-.17.67-.22a2.9,2.9,0,0,0-.36-.34,5.31,5.31,0,0,1-2.14-.07c-.63-.14-1.16.22-1.78.12l-.2.41c-.28.31-.31.84-.74,1.06a3.37,3.37,0,0,0-.82.43,2.54,2.54,0,0,1-1.66.05,1.12,1.12,0,0,0-.55.07c-.17.12-.36.31-.56.46s-.57.38-.91.41c-.19,0-.39-.12-.58-.07-.24.26-.36.69-.74.81A2.46,2.46,0,0,1,1.69,32c-.12,0-.19.15-.33.12a2.66,2.66,0,0,1-.77-.29.6.6,0,0,1-.15-.31c0-.17.15-.31.22-.46a1.85,1.85,0,0,1,.1-.57,1.2,1.2,0,0,1,.65-.56.59.59,0,0,1,.31-.45c.31-.17.65-.56,1.06-.34l.43.36c.39-.17.29-.55.48-.87s.22-.45.46-.45.36,0,.53,0a1.43,1.43,0,0,0,.67-.37l0-.14A3.83,3.83,0,0,1,5,26.11a4.35,4.35,0,0,1-1.35,0,2.12,2.12,0,0,1-1.58-1.3,2.18,2.18,0,0,1,.28-2.12,8.21,8.21,0,0,1,1.21-1.15c-.15,0-.32,0-.46-.07a1.81,1.81,0,0,1-1.4-1.28,1.53,1.53,0,0,1,.2-1.13C2,19,2,18.94,2.15,19a6.33,6.33,0,0,1,.7.44l.17.09c.79.27,1.85.27,2.16,1.26a1.72,1.72,0,0,1-.84,1.78A3.29,3.29,0,0,0,3.26,23.7a.81.81,0,0,0,.24.91,1.11,1.11,0,0,0,1.15.15,9,9,0,0,0,1.9-1.18,3.56,3.56,0,0,1,2-.63,2.05,2.05,0,0,0,.89-.43A3.5,3.5,0,0,1,11,21.58a7.25,7.25,0,0,1,.8-.09c.21-.1.36-.36.53-.48.79-.7,1.85-.68,2.69-1.23a2.35,2.35,0,0,1,2.43-.41Zm.8,8.18a9.21,9.21,0,0,0-1.23.19,2,2,0,0,0,.48,1c.15-.56.6-.77.75-1.18" transform="translate(-0.44 -15.69)"/><path class="cls-1" d="M32,27.77c.24.36.39.72.6,1.1a6.83,6.83,0,0,1,.61-1A7.38,7.38,0,0,1,32,27.77m.51,1.78c0,.07-.07.09-.17.09a.85.85,0,0,1-.77,1c-.41,0-1.08-.39-1.47-.41s-1.15.29-1.59-.36a2.19,2.19,0,0,1-1.82.87c-.34,0-.7-.2-.2-.63-1.1.36-1.1-.38-.91-.53a4.37,4.37,0,0,0,.67-.58c1.54-1.61,1-4.4,2.65-6.25a13.36,13.36,0,0,1,2.5-2.07c.46-.31.92-.77,1.35-1.08l0,0v0a2.71,2.71,0,0,1,.8-.46,2.32,2.32,0,0,1,1.61.44,3,3,0,0,1,.63.6c.14.14.36.14.55.21a4.16,4.16,0,0,1,1.49.61c.31.19.58.52,1,.57a3.71,3.71,0,0,1,1.28.46,4,4,0,0,0,1.49.79,6.52,6.52,0,0,1,3,1.42,2.21,2.21,0,0,0,1.81.46.64.64,0,0,0,.38-.41,1.46,1.46,0,0,0-.48-1.08c-.55-.65-1.52-1.2-1.4-2.14a2.15,2.15,0,0,1,1.54-1.3c.34-.12.75-.07,1-.36.14-.1.22-.44.46-.32a.77.77,0,0,1,.24.58,1.64,1.64,0,0,1-.68,1.74,2.57,2.57,0,0,1-.94.33,4.73,4.73,0,0,1,1.3,1.49,2.4,2.4,0,0,1,.29,1A2,2,0,0,1,47.05,26a2.43,2.43,0,0,1-1.2.27c-.17,0-.32-.05-.46-.05a3.34,3.34,0,0,1,0,1.18,4.89,4.89,0,0,0-.14.65.41.41,0,0,0,.36.12c.31,0,.69,0,.86.31s.22.67.34,1c0,.05.07.17.14.14.22-.19.44-.46.75-.38s.58.41.87.62a.59.59,0,0,1,.12.29c.24.1.55.27.62.55s0,.39.07.56.27.43.12.67l-.09.07-.92.29a.33.33,0,0,1-.21-.12c-.48,0-1.06.12-1.45-.21a2.24,2.24,0,0,1-.41-.51,1,1,0,0,1-1,.05,3.12,3.12,0,0,0-2-.89,2.08,2.08,0,0,1-1.16,0,3.59,3.59,0,0,1-1-.72,2.83,2.83,0,0,1-.53-1.39,6.43,6.43,0,0,1-1.64,0,4.75,4.75,0,0,0-1.25.14,6.49,6.49,0,0,1-1.59.12L36,29a.5.5,0,0,1,.33.12l.1.09a11.94,11.94,0,0,1,1.35.08.44.44,0,0,1,.24.21.35.35,0,0,1,0,.36,4.06,4.06,0,0,1-.62.87c-.07.09-.29,0-.32.14a1.23,1.23,0,0,1-.91.89,1,1,0,0,1-.5-.05l-1.52-.45c-.17-.05-.31-.22-.46-.31s-.53.07-.67-.13c-.07,0-.14-.21-.17-.28a2.56,2.56,0,0,1-.36-.94" transform="translate(-0.44 -15.69)"/><path class="cls-2" d="M17.38,22.5a2,2,0,0,1,.05,1.22,0,0,0,0,1-.07,0,8,8,0,0,0-.27-1c-.07-.19-.31-.36-.21-.57a.22.22,0,0,1,.21,0,1.88,1.88,0,0,1,.29.39m3.85,3.37a1.15,1.15,0,0,1,.36,1.05c-.05.08,0,.22-.14.25s-.1,0-.1-.08a1.29,1.29,0,0,0-.14-.62c-.15-.15-.31-.44-.56-.44s-.28.25-.38.37,0,0-.05,0c-.09-.25.1-.44.17-.63s.12-.55.43-.43.27.38.41.53m-.5,2.86a.49.49,0,0,1-.12.46,1.24,1.24,0,0,1-.51,0c-.05,0-.09,0-.07-.09a.8.8,0,0,1,.53-.51.15.15,0,0,1,.17.1M3.16,20a3,3,0,0,1,1.64.6,1,1,0,0,1,.07,1.08c-.34.58-1,.87-1.42,1.37A1.38,1.38,0,0,0,3,24.4a1.17,1.17,0,0,0,1.06.79,3.27,3.27,0,0,0,1.83-.67,5.87,5.87,0,0,1,1.75-1.11c.44-.14.92-.07,1.35-.24a2.67,2.67,0,0,0,1.18-.82,2.06,2.06,0,0,1,1.42-.5c.48.07.74-.36,1.08-.65a6.16,6.16,0,0,1,1.93-.84,10.38,10.38,0,0,0,1.25-.7,1.91,1.91,0,0,1,1.37-.05A3.81,3.81,0,0,1,18,20L20,21.68a.29.29,0,0,0,.15.14,19.53,19.53,0,0,1,1.58,2.07,3.09,3.09,0,0,1,.29.82,11.31,11.31,0,0,0,.75,3c.09.15.29.27.38.41.32.44.51,1,1,1.28l.29.14a.07.07,0,0,1,0,.1l-.05,0A1.45,1.45,0,0,1,23,29a1.75,1.75,0,0,0-.89-1l-.05,0c.05.14.2.24.24.36a2.9,2.9,0,0,1,.39.84,1.49,1.49,0,0,0,.7.7l.38.19a.1.1,0,0,1,0,.15l0,0a2.13,2.13,0,0,1-1.69-.67.53.53,0,0,0-.4-.22,1.57,1.57,0,0,1-1,.53,2.3,2.3,0,0,0-1.2.07,3.14,3.14,0,0,1-1,.27.46.46,0,0,1-.44-.24c0-.22-.14-.46,0-.68l.24-.36a.08.08,0,0,0-.07-.09c-.1,0-.27.14-.32,0,0-.36.39-.6.63-.84a1.57,1.57,0,0,1,.38-.79.08.08,0,0,0-.07-.08,5.86,5.86,0,0,1-1,.12,1.21,1.21,0,0,1-.91.15c-.08-.05-.05-.12,0-.17a2,2,0,0,0,.36-1.59s0-.07-.07-.07-.05.05-.07.07a3.28,3.28,0,0,1-.53,1.4,1.87,1.87,0,0,1-.84.29.19.19,0,0,0-.15.16c0,.2.12.32.19.49l.63,1.15a3.21,3.21,0,0,1-.19.92s.07,0,.12,0a1.74,1.74,0,0,0,.45-.75.55.55,0,0,0-.07-.36l-.65-1.3c.05-.07.15-.07.22-.1a1.73,1.73,0,0,1,.43.12,4.32,4.32,0,0,0,.58,1.13c.05.22.12.51,0,.68a5,5,0,0,1-.49.79c-.16.17-.4.15-.65.17h-.07a9.59,9.59,0,0,1-1.8.7.81.81,0,0,1-.8-.15,2.29,2.29,0,0,1-.45-.62c-.17-.22-.44,0-.63-.15a8.21,8.21,0,0,1-.48-.81c0-.08,0-.15.07-.2a3.19,3.19,0,0,1,.7-.09.7.7,0,0,1,.6.17c.29.33.41.79.84,1a1.81,1.81,0,0,0,.92-.22c.17-.1.36-.24.36-.46a1.35,1.35,0,0,0-.68-1,3.34,3.34,0,0,1-1-.79,2.51,2.51,0,0,1-.24-.6c0-.05-.12-.05-.14,0s0,.34,0,.48.07.22,0,.29c-.22.17-.51.07-.77.1A10.46,10.46,0,0,0,11,27.94c-.53,0-1.25.38-1.63-.15a2.94,2.94,0,0,1,0-1.61.11.11,0,0,0-.1-.1.09.09,0,0,0-.12.05c-.14.51-.17,1.06-.29,1.59a2.37,2.37,0,0,1-1,1.18,3.69,3.69,0,0,1-1.4.33,2.72,2.72,0,0,0-2.33,1c0,.07-.12.15-.1.24s.1.05.12,0a2.78,2.78,0,0,1,2.33-.94,2.65,2.65,0,0,0,2.29-.89,4.93,4.93,0,0,0,.36-.53c.1,0,.17.12.24.17,0,.26-.19.43-.29.65a1.48,1.48,0,0,1-.48.67,3.13,3.13,0,0,0-.79.41,1.5,1.5,0,0,1-.92.1,2.3,2.3,0,0,0-1.3,0c-.19.12-.36.33-.55.45s-.5.34-.82.32-.48-.2-.67,0-.29.6-.6.74-.75,0-1.11,0a1.72,1.72,0,0,1,.34-1,.68.68,0,0,0,.38-.14,1.57,1.57,0,0,0,.34-.46,2.2,2.2,0,0,0,.87-.67,3.15,3.15,0,0,1,.38-.89l.12,0,.65-.05A3.54,3.54,0,0,0,5.62,28a.36.36,0,0,0,.07-.31,5.22,5.22,0,0,1-.29-.87c-.07-.34,0-.67-.07-1.06,0,0,0-.09-.1-.09a3.6,3.6,0,0,1-1.32.14,1.85,1.85,0,0,1-1.33-3,10,10,0,0,1,1.35-1.25c.07,0,.07-.14.1-.22s-.1-.17-.17-.21c-.29-.08-.63,0-.91-.1a1.49,1.49,0,0,1-1-1.18.94.94,0,0,1,.15-.62,3,3,0,0,0,1,.72M1.72,30.7v.07c-.12.29-.19.63-.29,1a2.33,2.33,0,0,1-.58-.17c0-.05,0-.1,0-.15.22-.19.15-.43.2-.69a.5.5,0,0,1,.31-.34c.17,0,.26.19.36.31m1.06-1a1.53,1.53,0,0,1-.56.68.48.48,0,0,1-.31,0c0-.05-.14-.1-.14-.19s0-.22.07-.27a4.8,4.8,0,0,0,.58-.41c.05,0,.14,0,.17,0s.16.13.19.22m12.05-.09c0,.09.17.21.07.31a.92.92,0,0,1-.67.21c-.19-.14-.17-.4-.34-.6s-.26-.14-.21-.29l.07,0a4.2,4.2,0,0,0,.79-.05c.27,0,.2.29.29.46" transform="translate(-0.44 -15.69)"/><path class="cls-2" d="M30,25.67a3.23,3.23,0,0,1,.36.63.17.17,0,0,1,0,.14s-.08.1-.15,0-.14-.31-.36-.29-.24.12-.36.2-.51.38-.55.67c-.05.1,0,.26-.12.31a.09.09,0,0,1-.12-.07,1.24,1.24,0,0,1,.36-1,6.35,6.35,0,0,0,.67-.79.27.27,0,0,1,.29.16m.09,3.2c.05.1.15.22.08.34s-.27,0-.39,0a.47.47,0,0,1-.19-.43.13.13,0,0,1,.05-.12.56.56,0,0,1,.45.19m3.61-7.36c.08.1,0,.19,0,.27a5.66,5.66,0,0,0-1,1,1.36,1.36,0,0,0-.22.41s0,0-.05,0a1,1,0,0,1,.08-.6,2.91,2.91,0,0,1,1-1.2c.05,0,.22-.05.26.07M35.12,20c.26.17.36.53.67.6a6.72,6.72,0,0,1,1.54.48,4.68,4.68,0,0,1,1,.68,7.48,7.48,0,0,0,1,.24,4.66,4.66,0,0,1,1.23.72c.53.41,1.28.36,1.88.63A20.54,20.54,0,0,1,45,24.81a1.83,1.83,0,0,0,1.61.07A.87.87,0,0,0,47,24c-.17-1-1.26-1.5-1.76-2.31a1.08,1.08,0,0,1-.12-.68,1.86,1.86,0,0,1,1.13-.91c.34-.17.77-.12,1.08-.32a1.2,1.2,0,0,0,.29-.24c.07,0,.07.08.1.12a1.45,1.45,0,0,1-.51,1.52,1.71,1.71,0,0,1-.65.24c-.19.07-.58-.07-.55.27a1,1,0,0,0,.31.38,3.29,3.29,0,0,1,1.37,2.14,1.7,1.7,0,0,1-1,1.54,2.38,2.38,0,0,1-1.42.12c-.12,0-.31-.14-.41,0s.1.33.1.5a2.45,2.45,0,0,1,0,1c0,.24-.29.53-.07.77s.65.24,1,.28c.19,0,.27.25.31.39s.08.41.15.55c0,.36.41.51.6.75s.46.72.87.7a2.87,2.87,0,0,1,.26.89l-.05.05c-.34,0-.79.09-1-.15s-.39-.72-.82-.58a.66.66,0,0,1-.67.1c-.22-.07-.37-.27-.56-.39a2.59,2.59,0,0,0-2.09-.48c-.43.12-.77-.19-1.11-.38a1.35,1.35,0,0,1-.67-1.08L41,28.32a.14.14,0,0,1,.09-.12h.07a2.7,2.7,0,0,0,1.42,1.49c.61.24,1.16-.07,1.81,0a3.21,3.21,0,0,1,1.54.82s.07,0,.1-.07v0a2.51,2.51,0,0,0-2.22-1,1.81,1.81,0,0,1-1.9-.72,3,3,0,0,1-.48-1.16,6.73,6.73,0,0,0-.34-1.44s-.09-.07-.14-.05l0,.08a3.12,3.12,0,0,1,0,1.49.9.9,0,0,1-.87.55c-.36,0-.7-.05-1.08-.05-.87,0-1.64.32-2.53.24a1.06,1.06,0,0,0,.15-.67s-.1,0-.15,0-.14.31-.24.46a1.5,1.5,0,0,1-.91.67,4.34,4.34,0,0,0-.72.7.31.31,0,0,0-.05.31c.17.44.67.48,1.06.6a.41.41,0,0,0,.45-.21c.17-.27.2-.7.58-.75h.84a.31.31,0,0,1,.17.15l0,.12c-.19.21-.27.53-.51.67s-.31,0-.41.12a.9.9,0,0,1-.41.75c-.21.19-.52.09-.77,0-.45-.17-.91-.26-1.37-.41-.19-.05-.26-.29-.48-.34s-.41.1-.58-.07a2.81,2.81,0,0,1-.19-.6,1.49,1.49,0,0,1-.14-.48.54.54,0,0,1,.05-.36l.62-1.13c0-.07.1-.15.17-.17a1.85,1.85,0,0,1,.46.17L34,28l-.65,1a1.06,1.06,0,0,0,.15.93s0,.08.07.05a1.73,1.73,0,0,1,0-.6,2.61,2.61,0,0,1,.26-.53l.51-.74a.47.47,0,0,0,0-.44c-.22-.21-.53-.29-.72-.57a3.46,3.46,0,0,1-.51-1.91A.16.16,0,0,0,33,25s-.09.05-.12.07a2.83,2.83,0,0,0,.08,1.42,3.82,3.82,0,0,0,.36.92s0,.12-.08.14a4,4,0,0,1-1-.05,2.85,2.85,0,0,1-1.11-.67c-.05,0-.07,0-.09.05.09.48.62.77.79,1.2s.46.63.53,1a.22.22,0,0,1-.1.15c-.12,0-.24,0-.36,0s.12.43,0,.62-.29.41-.51.41c-.43-.14-.87-.33-1.3-.45a5.45,5.45,0,0,0-.91,0c-.29,0-.48-.31-.7-.45a.16.16,0,0,0-.19,0,2.5,2.5,0,0,1-1.74,1s-.07-.05-.07-.1v-.05a2.64,2.64,0,0,0,.84-1c.1-.34.39-.58.51-.89,0-.05,0-.07-.07-.1l-.08.05a8.46,8.46,0,0,0-.89,1.15,1.1,1.1,0,0,1-1,.34c-.05,0-.05-.1,0-.14,1.49-.92,1.66-2.55,2.07-4a6.24,6.24,0,0,1,1.28-2.79A38.54,38.54,0,0,1,33,19.76a1,1,0,0,1,.63-.34,2.08,2.08,0,0,1,1.54.55M48.85,30.61c.12.16.08.43.12.62s.22.27.12.41l-.53.17c-.09,0,0-.12-.09-.17a4.5,4.5,0,0,0-.22-.82c0-.17.15-.29.27-.38s.21.09.33.17m-1.22-1.09a3.24,3.24,0,0,1,.6.51.37.37,0,0,1-.68.21,2.29,2.29,0,0,1-.33-.55c.07-.12.24-.31.41-.17M36,29.33a2.15,2.15,0,0,1-.19.67c-.07.15-.29.1-.44.08S35,30,35,29.79a.88.88,0,0,1,.17-.53c.22,0,.48,0,.7,0s.17,0,.17.1" transform="translate(-0.44 -15.69)"/></svg>